<svg width="588" height="1024" viewBox="0 0 588 1024" fill="none" xmlns="http://www.w3.org/2000/svg">
<g filter="url(#filter0_dii)">
<rect x="60.269" y="60" width="427.286" height="863.076" rx="59" fill="#343434"/>
</g>
<g filter="url(#filter1_d)">
<g clip-path="url(#clip0)">
<rect x="81.3796" y="86.5381" width="385" height="811" rx="50" fill="white"/>
<path d="M81.3796 86.5381H466.38V512.538C466.38 725.168 294.009 897.538 81.3796 897.538V86.5381Z" fill="#D53C3C"/>
<circle cx="273.38" cy="492.538" r="100" fill="white"/>
<path d="M265.347 525.437H273.922V511.282C273.522 511.251 273.103 511.209 272.699 511.158C272.025 511.095 271.351 511.002 270.687 510.888C270.314 510.836 269.951 510.774 269.587 510.701C269.348 510.649 269.11 510.608 268.871 510.556C268.425 510.473 267.979 510.369 267.534 510.256C266.097 509.915 264.681 509.493 263.292 508.991C262.774 508.805 262.255 508.608 261.737 508.4C261.405 508.265 261.073 508.12 260.737 507.975C259.378 507.385 258.052 506.72 256.766 505.984V506.15C255.554 505.503 254.42 504.721 253.385 503.817C253.375 503.817 253.364 503.806 253.354 503.796C252.431 503.143 251.539 502.448 250.668 501.722C249.818 501.006 248.998 500.26 248.21 499.472C247.81 499.078 247.41 498.672 247.039 498.258C247.017 498.247 246.998 498.229 246.987 498.207C246.613 497.807 246.261 497.418 245.919 497.007C245.172 496.156 244.477 495.285 243.819 494.373C243.466 493.896 243.134 493.408 242.803 492.91C242.543 492.527 242.303 492.153 242.066 491.759C242.056 491.749 242.056 491.739 242.046 491.728C241.806 491.355 241.578 490.971 241.361 490.577C240.791 489.571 240.252 488.534 239.761 487.477C239.554 487.031 239.346 486.585 239.161 486.128C238.777 485.216 238.424 484.293 238.113 483.36C237.999 483.028 237.896 482.696 237.792 482.36C237.584 481.697 237.392 481.023 237.222 480.348C237.159 480.11 237.097 479.861 237.045 479.623C236.931 479.177 236.838 478.741 236.745 478.295C236.651 477.808 236.558 477.32 236.485 476.833C236.392 476.294 236.309 475.744 236.247 475.205C236.185 474.749 236.147 474.305 236.102 473.857C236.081 473.67 236.07 473.494 236.06 473.307C236.044 473.208 236.034 473.108 236.029 473.007C236.008 472.758 235.998 472.507 235.987 472.26C235.945 471.586 235.925 470.902 235.925 470.207C233.227 474.209 231.376 478.721 230.486 483.464C229.596 488.208 229.686 493.084 230.751 497.791C230.761 497.811 230.761 497.842 230.771 497.863C232.238 504.249 235.441 510.105 240.027 514.784C244.613 519.464 250.404 522.784 256.759 524.379C259.566 525.087 262.451 525.443 265.347 525.437Z" fill="url(#paint0_linear)"/>
<path d="M273.922 511.282V493.882C273.934 492.748 273.721 491.623 273.296 490.572C272.87 489.521 272.241 488.565 271.443 487.758C270.646 486.952 269.696 486.312 268.65 485.875C267.603 485.439 266.48 485.214 265.346 485.214C264.212 485.214 263.089 485.439 262.043 485.875C260.996 486.312 260.047 486.952 259.249 487.758C258.452 488.565 257.822 489.521 257.397 490.572C256.971 491.623 256.759 492.748 256.771 493.882V505.982C262.028 508.991 267.884 510.8 273.922 511.282Z" fill="#243C55"/>
<path d="M253.358 503.795C251.376 502.081 249.786 499.96 248.696 497.577C247.607 495.193 247.043 492.603 247.043 489.982C247.044 488.767 247.162 487.556 247.395 486.363C247.638 485.18 247.996 484.024 248.463 482.91C249.848 479.627 252.158 476.817 255.11 474.821C255.11 474.811 255.11 474.811 255.121 474.811C255.598 474.365 256.095 473.929 256.604 473.511C256.612 473.51 256.619 473.506 256.624 473.5C261.365 469.569 266.994 466.855 273.022 465.594C279.051 464.333 285.296 464.564 291.214 466.266C291.414 466.307 291.614 466.366 291.814 466.432C285.797 459.656 277.411 455.446 268.382 454.669C259.353 453.891 250.37 456.606 243.283 462.253C240.445 464.518 237.966 467.2 235.93 470.207C235.946 478.892 238.709 487.35 243.822 494.369C246.475 498.002 249.695 501.185 253.358 503.795Z" fill="url(#paint1_linear)"/>
<path d="M300.791 524.566V508.524C300.79 508.524 300.788 508.524 300.787 508.524C300.786 508.523 300.785 508.522 300.784 508.521C300.783 508.52 300.782 508.519 300.782 508.518C300.781 508.516 300.781 508.515 300.781 508.513H300.77C300.501 508.337 300.231 508.171 299.97 507.984C299.337 507.584 298.725 507.155 298.124 506.719C296.617 505.622 295.183 504.427 293.831 503.142C293.572 502.903 293.312 502.654 293.053 502.405C293.012 502.364 292.97 502.312 292.929 502.27C292.555 501.908 292.203 501.545 291.861 501.17C291.487 500.776 291.124 500.37 290.761 499.97C290.471 499.628 290.17 499.276 289.88 498.923C289.693 498.695 289.507 498.456 289.32 498.218C289.164 498.031 289.02 497.834 288.874 497.647C288.656 497.357 288.438 497.067 288.231 496.776C288.158 496.676 288.086 496.576 288.024 496.486C287.754 496.113 287.484 495.729 287.236 495.335C287.199 495.29 287.166 495.241 287.136 495.19C286.856 494.765 286.586 494.339 286.327 493.904C286.078 493.52 285.85 493.137 285.643 492.742C285.549 492.597 285.466 492.442 285.383 492.286C285.166 491.913 284.958 491.54 284.783 491.166C284.762 491.125 284.741 491.094 284.721 491.052C284.482 490.617 284.264 490.171 284.057 489.725C284.057 489.704 284.047 489.694 284.036 489.673C283.881 489.373 283.746 489.073 283.611 488.773C283.642 489.173 283.652 489.582 283.652 489.986V507.416C283.653 508.583 283.771 509.747 284.005 510.89C284.801 514.754 286.906 518.224 289.964 520.716C293.022 523.207 296.847 524.568 300.791 524.566Z" fill="url(#paint2_linear)"/>
<path d="M300.79 508.524V489.982C300.789 481.728 297.902 473.733 292.629 467.382C292.37 467.061 292.1 466.739 291.82 466.428C291.656 466.373 291.489 466.328 291.32 466.293C291.297 466.274 291.268 466.263 291.237 466.262H291.217C290.833 466.148 290.439 466.044 290.045 465.94C289.983 465.93 289.91 465.909 289.837 465.889C289.464 465.795 289.08 465.712 288.697 465.629C288.147 465.505 287.597 465.401 287.037 465.308C286.737 465.256 286.437 465.215 286.137 465.163C285.774 465.111 285.401 465.07 285.028 465.028C284.685 464.986 284.343 464.955 284.001 464.928C283.825 464.918 283.648 464.897 283.462 464.887C282.57 464.825 281.668 464.793 280.762 464.793C280.533 464.793 280.305 464.793 280.088 464.804C279.888 464.804 279.704 464.814 279.507 464.825C279.4 464.818 279.292 464.821 279.185 464.835C279.04 464.835 278.895 464.845 278.75 464.856C278.366 464.866 277.983 464.897 277.599 464.928C277.443 464.939 277.288 464.949 277.132 464.97C276.645 465.011 276.168 465.063 275.68 465.136C275.38 465.177 275.069 465.219 274.768 465.27C274.711 465.271 274.655 465.282 274.602 465.302C274.374 465.333 274.135 465.374 273.902 465.416C273.021 465.571 272.139 465.768 271.279 465.996C271.019 466.059 270.76 466.131 270.511 466.204C269.114 466.598 267.739 467.069 266.394 467.614C266.011 467.77 265.637 467.936 265.264 468.114C264.434 468.477 263.625 468.881 262.827 469.314C262.495 469.48 262.174 469.666 261.852 469.853C260.929 470.382 260.027 470.953 259.152 471.564C258.716 471.875 258.281 472.186 257.852 472.508C257.447 472.819 257.043 473.14 256.652 473.462C256.641 473.479 256.627 473.493 256.61 473.503C256.496 473.586 256.393 473.68 256.279 473.773C255.879 474.105 255.49 474.457 255.107 474.81C258.124 472.765 261.687 471.674 265.332 471.678H265.342C267.743 471.678 270.12 472.152 272.337 473.072C274.554 473.992 276.568 475.34 278.263 477.039C281.401 480.175 283.295 484.342 283.593 488.768C283.728 489.068 283.863 489.368 284.018 489.668C284.029 489.689 284.039 489.699 284.039 489.72C284.257 490.166 284.474 490.612 284.703 491.047C284.723 491.089 284.744 491.12 284.765 491.161C284.951 491.535 285.159 491.908 285.365 492.281C285.448 492.437 285.531 492.592 285.625 492.737C285.842 493.137 286.07 493.515 286.309 493.899C286.568 494.334 286.838 494.76 287.118 495.185C287.148 495.236 287.181 495.284 287.218 495.33C287.466 495.714 287.726 496.097 288.006 496.481C288.068 496.574 288.14 496.668 288.213 496.771C288.42 497.062 288.638 497.352 288.856 497.642C289.001 497.829 289.146 498.026 289.302 498.213C289.478 498.451 289.665 498.69 289.862 498.918C290.152 499.271 290.453 499.618 290.743 499.965C291.106 500.365 291.469 500.774 291.843 501.165C292.185 501.539 292.537 501.902 292.911 502.265C292.952 502.307 292.994 502.359 293.035 502.4C293.294 502.649 293.554 502.9 293.813 503.137C295.165 504.422 296.599 505.616 298.106 506.714C298.706 507.16 299.319 507.585 299.952 507.99C300.211 508.166 300.481 508.342 300.752 508.508H300.763C300.761 508.512 300.76 508.516 300.761 508.52C300.762 508.524 300.765 508.528 300.769 508.53C300.772 508.532 300.777 508.532 300.781 508.531C300.785 508.53 300.788 508.528 300.79 508.524Z" fill="url(#paint3_linear)"/>
<g style="mix-blend-mode:multiply" opacity="0.1">
<g style="mix-blend-mode:multiply" opacity="0.1">
<path d="M247.043 489.982C247.044 488.768 247.162 487.556 247.395 486.363C244.875 480.1 243.257 472.208 243.289 462.253C240.451 464.519 237.972 467.2 235.936 470.207C235.952 478.892 238.715 487.35 243.828 494.369C246.479 498.002 249.697 501.185 253.358 503.795C251.376 502.081 249.786 499.96 248.696 497.577C247.606 495.193 247.043 492.603 247.043 489.982Z" fill="black"/>
</g>
</g>
<g style="mix-blend-mode:multiply" opacity="0.16">
<g style="mix-blend-mode:multiply" opacity="0.16">
<path d="M273.921 511.282V509.706C267.477 508.208 261.554 505.006 256.77 500.435V505.983C262.027 508.991 267.884 510.801 273.921 511.282Z" fill="black"/>
</g>
</g>
<g style="mix-blend-mode:multiply" opacity="0.1">
<g style="mix-blend-mode:multiply" opacity="0.1">
<path d="M298.198 476.698C296.837 473.324 294.959 470.182 292.629 467.386C292.37 467.065 292.1 466.743 291.82 466.432C291.656 466.378 291.489 466.332 291.32 466.297C291.297 466.278 291.268 466.267 291.237 466.266H291.217C290.833 466.152 290.439 466.048 290.045 465.944C289.983 465.934 289.91 465.913 289.837 465.893C289.464 465.799 289.08 465.716 288.697 465.633C288.147 465.509 287.597 465.405 287.037 465.312C286.737 465.26 286.437 465.219 286.137 465.167C285.774 465.115 285.401 465.074 285.028 465.032C284.685 464.99 284.343 464.959 284.001 464.932C283.825 464.922 283.648 464.901 283.462 464.891C282.57 464.829 281.668 464.797 280.762 464.797C280.533 464.797 280.305 464.797 280.088 464.808C279.888 464.808 279.704 464.818 279.507 464.829C279.4 464.822 279.292 464.825 279.185 464.839C279.04 464.839 278.895 464.849 278.75 464.86C278.366 464.87 277.983 464.901 277.599 464.932C277.443 464.943 277.288 464.953 277.132 464.974C276.645 465.015 276.168 465.067 275.68 465.14C275.38 465.181 275.069 465.223 274.768 465.274C274.711 465.275 274.655 465.286 274.602 465.306C274.374 465.337 274.135 465.378 273.902 465.42C273.021 465.575 272.139 465.772 271.279 466C271.019 466.063 270.76 466.135 270.511 466.208C269.114 466.602 267.739 467.073 266.394 467.618C266.011 467.774 265.637 467.94 265.264 468.118C264.434 468.481 263.625 468.885 262.827 469.318C262.495 469.484 262.174 469.67 261.852 469.857C260.929 470.386 260.027 470.957 259.152 471.568C258.716 471.879 258.281 472.19 257.852 472.512C257.447 472.823 257.043 473.144 256.652 473.466C256.641 473.483 256.627 473.497 256.61 473.507C256.496 473.59 256.393 473.684 256.279 473.777C255.879 474.109 255.49 474.461 255.107 474.814C258.124 472.769 261.687 471.678 265.332 471.682H265.342C273.057 469.882 284.267 469.67 297.613 476.421C297.814 476.501 298.014 476.595 298.198 476.698Z" fill="black"/>
</g>
</g>
<g style="mix-blend-mode:multiply" opacity="0.1">
<g style="mix-blend-mode:multiply" opacity="0.1">
<path d="M284.152 494.482V491.05C284.193 491.128 284.235 491.205 284.277 491.282C284.293 491.315 284.308 491.341 284.318 491.358L284.321 491.364C284.329 491.377 284.332 491.383 284.335 491.389C284.517 491.777 284.731 492.159 284.946 492.53C285.024 492.675 285.111 492.838 285.211 492.994C285.422 493.396 285.653 493.783 285.902 494.168C286.163 494.605 286.433 495.032 286.712 495.455C286.747 495.514 286.785 495.57 286.827 495.624C287.079 496.022 287.35 496.407 287.616 496.775C287.68 496.868 287.754 496.97 287.826 497.069C288.036 497.365 288.258 497.66 288.474 497.948L288.474 497.948L288.48 497.955C288.521 498.008 288.565 498.066 288.611 498.126C288.712 498.257 288.821 498.401 288.931 498.533C288.959 498.568 288.986 498.603 289.014 498.638C289.171 498.838 289.332 499.044 289.494 499.241L289.494 499.241C289.736 499.536 289.986 499.83 290.228 500.115C290.279 500.175 290.33 500.235 290.38 500.294L290.385 500.3L290.391 500.306C290.463 500.386 290.535 500.466 290.608 500.546C290.897 500.866 291.193 501.193 291.495 501.511C291.841 501.89 292.197 502.258 292.575 502.624C292.585 502.634 292.597 502.647 292.617 502.67L292.618 502.671C292.638 502.693 292.667 502.727 292.7 502.759L292.699 502.759L292.707 502.766C292.965 503.014 293.227 503.265 293.489 503.507C294.856 504.806 296.306 506.014 297.83 507.124L297.83 507.124C298.432 507.56 299.049 507.994 299.691 508.399C299.885 508.538 300.088 508.669 300.28 508.792C300.284 508.794 300.288 508.797 300.291 508.799V517.95C293.193 511.46 287.672 503.433 284.152 494.482Z" fill="white"/>
<path d="M284.152 494.482V491.05C284.193 491.128 284.235 491.205 284.277 491.282C284.293 491.315 284.308 491.341 284.318 491.358L284.321 491.364C284.329 491.377 284.332 491.383 284.335 491.389C284.517 491.777 284.731 492.159 284.946 492.53C285.024 492.675 285.111 492.838 285.211 492.994C285.422 493.396 285.653 493.783 285.902 494.168C286.163 494.605 286.433 495.032 286.712 495.455C286.747 495.514 286.785 495.57 286.827 495.624C287.079 496.022 287.35 496.407 287.616 496.775C287.68 496.868 287.754 496.97 287.826 497.069C288.036 497.365 288.258 497.66 288.474 497.948L288.474 497.948L288.48 497.955C288.521 498.008 288.565 498.066 288.611 498.126C288.712 498.257 288.821 498.401 288.931 498.533C288.959 498.568 288.986 498.603 289.014 498.638C289.171 498.838 289.332 499.044 289.494 499.241L289.494 499.241C289.736 499.536 289.986 499.83 290.228 500.115C290.279 500.175 290.33 500.235 290.38 500.294L290.385 500.3L290.391 500.306C290.463 500.386 290.535 500.466 290.608 500.546C290.897 500.866 291.193 501.193 291.495 501.511C291.841 501.89 292.197 502.258 292.575 502.624C292.585 502.634 292.597 502.647 292.617 502.67L292.618 502.671C292.638 502.693 292.667 502.727 292.7 502.759L292.699 502.759L292.707 502.766C292.965 503.014 293.227 503.265 293.489 503.507C294.856 504.806 296.306 506.014 297.83 507.124L297.83 507.124C298.432 507.56 299.049 507.994 299.691 508.399C299.885 508.538 300.088 508.669 300.28 508.792C300.284 508.794 300.288 508.797 300.291 508.799V517.95C293.193 511.46 287.672 503.433 284.152 494.482Z" stroke="#D53C3C"/>
</g>
</g>
<g style="mix-blend-mode:screen" opacity="0.6">
<g style="mix-blend-mode:screen" opacity="0.6">
<path d="M250.673 501.716C246.435 498.154 242.956 493.777 240.442 488.845C237.928 483.912 236.432 478.524 236.041 473.002C236.031 473.157 236.01 473.644 235.989 474.381C235.974 474.934 235.988 475.488 236.031 476.04C236.052 476.758 236.115 477.475 236.217 478.186C236.259 478.586 236.317 478.986 236.373 479.41C236.456 479.825 236.539 480.261 236.622 480.71C236.788 481.602 237.047 482.525 237.316 483.479C237.638 484.412 237.897 485.408 238.322 486.362C238.706 487.337 239.162 488.291 239.622 489.245C240.14 490.178 240.628 491.122 241.198 491.993C241.737 492.885 242.359 493.704 242.94 494.502C243.552 495.291 244.164 496.027 244.775 496.69C245.341 497.326 245.94 497.931 246.569 498.505C247.14 499.055 247.689 499.522 248.198 499.926C248.62 500.28 249.059 500.612 249.515 500.921C250.165 501.389 250.58 501.659 250.673 501.716Z" fill="white"/>
</g>
</g>
<g style="mix-blend-mode:screen" opacity="0.6">
<g style="mix-blend-mode:screen" opacity="0.6">
<path d="M300.77 508.516H300.781C300.718 508.454 300.438 508.184 299.972 507.77C299.453 507.303 298.707 506.629 297.815 505.83C297.379 505.416 296.915 504.98 296.415 504.513C295.915 504.046 295.43 503.528 294.891 503.031C293.854 501.973 292.765 500.843 291.728 499.671C290.67 498.499 289.685 497.271 288.762 496.135C288.326 495.535 287.862 494.994 287.462 494.435C287.062 493.876 286.674 493.367 286.321 492.89C285.616 491.925 285.045 491.116 284.641 490.525C284.341 490.09 284.123 489.799 284.029 489.675C287.698 497.424 293.507 503.962 300.77 508.516Z" fill="white"/>
</g>
</g>
<g style="mix-blend-mode:screen" opacity="0.6">
<g style="mix-blend-mode:screen" opacity="0.6">
<path d="M280.767 464.793C284.302 464.788 287.819 465.284 291.215 466.266H291.256C291.256 466.266 290.727 466.028 289.763 465.685C288.435 465.211 287.072 464.844 285.687 464.585C283.716 464.2 281.712 464.01 279.704 464.015C278.572 464.007 277.44 464.059 276.313 464.17C275.162 464.295 273.99 464.461 272.839 464.699C271.688 464.937 270.547 465.249 269.439 465.599C268.887 465.761 268.343 465.952 267.811 466.17C267.282 466.37 266.763 466.584 266.255 466.813C265.284 467.23 264.339 467.705 263.424 468.233C262.595 468.688 261.791 469.189 261.018 469.733C260.358 470.181 259.721 470.662 259.11 471.174C258.55 471.61 258.104 472.045 257.721 472.374C257.067 473.017 256.684 473.422 256.621 473.494C263.403 467.857 271.948 464.778 280.767 464.793Z" fill="white"/>
</g>
</g>
<g style="mix-blend-mode:multiply" opacity="0.3">
<g style="mix-blend-mode:multiply" opacity="0.3">
<path d="M300.791 524.566V489.982C300.789 481.728 297.902 473.734 292.63 467.382C293.345 468.357 294.019 469.342 294.652 470.369C295.296 471.412 295.884 472.488 296.415 473.593C296.871 474.516 297.265 475.46 297.628 476.414C297.701 476.591 297.763 476.777 297.836 476.964C298.262 478.106 298.63 479.269 298.936 480.448C299.247 481.623 299.496 482.814 299.682 484.015C299.848 485.215 299.982 486.421 300.035 487.624C300.088 488.827 300.077 490.03 300.066 491.274L300.025 494.974L299.973 502.368V509.762C299.973 512.636 299.99 515.508 300.025 518.379C300.035 520.205 300.066 522.03 300.087 523.844L299.387 523.834L297.987 523.679L296.615 523.404L295.256 523.021L293.929 522.513L292.654 521.891L291.43 521.165L290.269 520.335L289.18 519.422L288.153 518.422L287.209 517.343L286.359 516.182L285.612 514.937L284.969 513.637L284.43 512.289L284.005 510.889C284.801 514.753 286.905 518.224 289.963 520.715C293.022 523.207 296.846 524.567 300.791 524.566Z" fill="black"/>
</g>
</g>
<g style="mix-blend-mode:multiply" opacity="0.3">
<g style="mix-blend-mode:multiply" opacity="0.3">
<path d="M265.347 525.437H273.922V513.273C273.788 515.295 273.715 517.328 273.622 519.35C273.539 521.206 273.477 523.05 273.422 524.908L266.868 524.742C265.686 524.721 264.535 524.732 263.394 524.642C262.247 524.561 261.105 524.423 259.972 524.227C258.842 524.05 257.724 523.808 256.622 523.501C255.503 523.206 254.402 522.849 253.322 522.433C252.254 522.07 251.206 521.562 250.159 521.105C249.153 520.556 248.106 520.079 247.152 519.436C246.152 518.866 245.233 518.181 244.289 517.517C243.823 517.185 243.389 516.802 242.941 516.449C242.484 516.098 242.048 515.721 241.635 515.319C241.22 514.925 240.784 514.541 240.38 514.137L239.18 512.882C238.78 512.482 238.433 512.011 238.05 511.575C237.687 511.13 237.303 510.704 236.971 510.227L235.945 508.827L235.011 507.365C234.68 506.878 234.411 506.365 234.13 505.865C233.849 505.365 233.539 504.859 233.3 504.33C232.8 503.282 232.294 502.23 231.9 501.125C231.454 500.068 231.154 498.958 230.78 497.869C232.247 504.255 235.45 510.111 240.037 514.79C244.623 519.47 250.413 522.79 256.768 524.385C259.573 525.09 262.455 525.444 265.347 525.437Z" fill="black"/>
</g>
</g>
<path fill-rule="evenodd" clip-rule="evenodd" d="M283.988 85.6981H163.948C167.314 85.9015 169.236 88.2278 169.446 91.2463V95.3314C169.446 106.929 178.848 116.331 190.446 116.331L280.069 116.331H357.725C369.323 116.331 378.725 106.929 378.725 95.3314V91.2463C378.935 88.2278 380.857 85.9015 384.223 85.6981L283.988 85.6981Z" fill="#343434"/>
<rect x="247.299" y="91.2345" width="53.2288" height="7.74466" rx="3.64317" fill="#404040"/>
<mask id="mask0" mask-type="alpha" maskUnits="userSpaceOnUse" x="247" y="91" width="54" height="8">
<rect x="247.299" y="91.2345" width="53.2288" height="7.74466" rx="3.64317" fill="#404040"/>
</mask>
<g mask="url(#mask0)">
<path fill-rule="evenodd" clip-rule="evenodd" d="M231.488 91.2345H232.538V91.2345H234.27H235.32H237.055H238.105H239.838H240.888H242.622H243.672H245.406H246.455H248.189H249.239H250.972H252.022H253.756H254.806H256.54H257.589H259.323H260.373H262.107H263.157H264.89H265.94H267.674H268.724H270.457H271.507H273.241H274.291H276.024H277.074H278.808H279.858H281.591H282.641H284.375H285.425H287.158H288.208H289.942H290.992H292.725H293.775H295.509H296.559H298.292H299.342H301.076H302.126H303.859H304.909H306.643H307.693H309.427H310.477H312.21H313.26H313.26V92.8076H313.26V94.3203H313.26V95.8934H313.26V97.406H313.26V98.9791L228.704 98.9791L228.704 98.979H228.704V91.2345H228.704V91.2345H231.488V91.2345ZM312.21 97.406V95.8934H310.477V97.406H312.21ZM312.21 94.3203V92.8076H310.477V94.3203H312.21ZM307.693 92.8076H309.427V94.3203H307.693V92.8076ZM307.693 95.8934H309.427V97.406H307.693V95.8934ZM306.643 97.406V95.8934H304.909V97.406H306.643ZM306.643 94.3203V92.8076H304.909V94.3203H306.643ZM302.126 92.8076H303.859V94.3203H302.126V92.8076ZM302.126 95.8934H303.859V97.406H302.126V95.8934ZM301.076 97.406V95.8934H299.342V97.406H301.076ZM301.076 94.3203V92.8076H299.342V94.3203H301.076ZM296.559 92.8076H298.292V94.3203H296.559V92.8076ZM296.559 95.8934H298.292V97.406H296.559V95.8934ZM295.509 97.406V95.8934H293.775V97.406H295.509ZM295.509 94.3203V92.8076H293.775V94.3203H295.509ZM290.992 92.8076H292.725V94.3203H290.992V92.8076ZM290.992 95.8934H292.725V97.406H290.992V95.8934ZM289.942 97.406V95.8934H288.208V97.406H289.942ZM289.942 94.3203V92.8076H288.208V94.3203H289.942ZM285.425 92.8076H287.158V94.3203H285.425V92.8076ZM285.425 95.8934H287.158V97.406H285.425V95.8934ZM284.375 97.406V95.8934H282.641V97.406H284.375ZM284.375 94.3203V92.8076H282.641V94.3203H284.375ZM279.858 92.8076H281.591V94.3203H279.858V92.8076ZM279.858 95.8934H281.591V97.406H279.858V95.8934ZM278.808 97.406V95.8934H277.074V97.406H278.808ZM278.808 94.3203V92.8076H277.074V94.3203H278.808ZM274.291 92.8076H276.024V94.3203H274.291V92.8076ZM274.291 95.8934H276.024V97.406H274.291V95.8934ZM273.241 97.406V95.8934H271.507V97.406H273.241ZM273.241 94.3203V92.8076H271.507V94.3203H273.241ZM268.724 92.8076H270.457V94.3203H268.724V92.8076ZM268.724 95.8934H270.457V97.406H268.724V95.8934ZM267.674 97.406V95.8934H265.94V97.406H267.674ZM267.674 94.3203V92.8076H265.94V94.3203H267.674ZM263.157 92.8076H264.89V94.3203H263.157V92.8076ZM263.157 95.8934H264.89V97.406H263.157V95.8934ZM262.107 97.406V95.8934H260.373V97.406H262.107ZM262.107 94.3203V92.8076H260.373V94.3203H262.107ZM257.589 92.8076H259.323V94.3203H257.589V92.8076ZM257.589 95.8934H259.323V97.406H257.589V95.8934ZM256.54 97.406V95.8934H254.806V97.406H256.54ZM256.54 94.3203V92.8076H254.806V94.3203H256.54ZM252.022 92.8076H253.756V94.3203H252.022V92.8076ZM252.022 95.8934H253.756V97.406H252.022V95.8934ZM250.972 97.406V95.8934H249.239V97.406H250.972ZM250.972 94.3203V92.8076H249.239V94.3203H250.972ZM246.455 92.8076H248.189V94.3203H246.455V92.8076ZM246.455 95.8934H248.189V97.406H246.455V95.8934ZM245.406 97.406V95.8934H243.672V97.406H245.406ZM245.406 94.3203V92.8076H243.672V94.3203H245.406ZM240.888 92.8076H242.622V94.3203H240.888V92.8076ZM240.888 95.8934H242.622V97.406H240.888V95.8934ZM239.838 97.406V95.8934H238.105V97.406H239.838ZM239.838 94.3203V92.8076H238.105V94.3203H239.838ZM235.32 92.8076H237.055V94.3203H235.32V92.8076ZM235.32 95.8934H237.055V97.406H235.32V95.8934ZM234.27 97.406V95.8934H232.538V97.406H234.27ZM234.27 94.3203V92.8076H232.538V94.3203H234.27ZM229.754 92.8076H231.488V94.3203H229.754V92.8076ZM229.754 95.8934H231.488V97.406H229.754V95.8934Z" fill="#272727"/>
</g>
<circle cx="319.331" cy="95.1068" r="6.07101" fill="#272727"/>
<circle cx="319.331" cy="95.1067" r="3.73294" fill="url(#paint4_radial)"/>
</g>
</g>
<defs>
<filter id="filter0_dii" x="0.269043" y="0" width="587.286" height="1023.08" filterUnits="userSpaceOnUse" color-interpolation-filters="sRGB">
<feFlood flood-opacity="0" result="BackgroundImageFix"/>
<feColorMatrix in="SourceAlpha" type="matrix" values="0 0 0 0 0 0 0 0 0 0 0 0 0 0 0 0 0 0 127 0"/>
<feOffset dx="20" dy="20"/>
<feGaussianBlur stdDeviation="40"/>
<feColorMatrix type="matrix" values="0 0 0 0 0 0 0 0 0 0 0 0 0 0 0 0 0 0 0.25 0"/>
<feBlend mode="normal" in2="BackgroundImageFix" result="effect1_dropShadow"/>
<feBlend mode="normal" in="SourceGraphic" in2="effect1_dropShadow" result="shape"/>
<feColorMatrix in="SourceAlpha" type="matrix" values="0 0 0 0 0 0 0 0 0 0 0 0 0 0 0 0 0 0 127 0" result="hardAlpha"/>
<feOffset dx="-10" dy="-10"/>
<feGaussianBlur stdDeviation="10"/>
<feComposite in2="hardAlpha" operator="arithmetic" k2="-1" k3="1"/>
<feColorMatrix type="matrix" values="0 0 0 0 0 0 0 0 0 0 0 0 0 0 0 0 0 0 0.54 0"/>
<feBlend mode="normal" in2="shape" result="effect2_innerShadow"/>
<feColorMatrix in="SourceAlpha" type="matrix" values="0 0 0 0 0 0 0 0 0 0 0 0 0 0 0 0 0 0 127 0" result="hardAlpha"/>
<feOffset dy="4"/>
<feGaussianBlur stdDeviation="2"/>
<feComposite in2="hardAlpha" operator="arithmetic" k2="-1" k3="1"/>
<feColorMatrix type="matrix" values="0 0 0 0 0 0 0 0 0 0 0 0 0 0 0 0 0 0 0.23 0"/>
<feBlend mode="normal" in2="effect2_innerShadow" result="effect3_innerShadow"/>
</filter>
<filter id="filter1_d" x="77.3796" y="86.5381" width="393" height="819" filterUnits="userSpaceOnUse" color-interpolation-filters="sRGB">
<feFlood flood-opacity="0" result="BackgroundImageFix"/>
<feColorMatrix in="SourceAlpha" type="matrix" values="0 0 0 0 0 0 0 0 0 0 0 0 0 0 0 0 0 0 127 0"/>
<feOffset dy="4"/>
<feGaussianBlur stdDeviation="2"/>
<feColorMatrix type="matrix" values="0 0 0 0 0 0 0 0 0 0 0 0 0 0 0 0 0 0 0.25 0"/>
<feBlend mode="normal" in2="BackgroundImageFix" result="effect1_dropShadow"/>
<feBlend mode="normal" in="SourceGraphic" in2="effect1_dropShadow" result="shape"/>
</filter>
<linearGradient id="paint0_linear" x1="-1047.91" y1="1907.07" x2="-1047.91" y2="1868.36" gradientUnits="userSpaceOnUse">
<stop stop-color="#D53C3C"/>
<stop offset="0.238" stop-color="#00EFFC"/>
<stop offset="0.44" stop-color="#D53C3C"/>
<stop offset="0.629" stop-color="#00D3E7"/>
<stop offset="0.81" stop-color="#D53C3C"/>
<stop offset="0.983" stop-color="#009BBC"/>
<stop offset="1" stop-color="#D53C3C"/>
</linearGradient>
<linearGradient id="paint1_linear" x1="-1091.76" y1="1899.25" x2="-1043.48" y2="1899.25" gradientUnits="userSpaceOnUse">
<stop stop-color="#D53C3C"/>
<stop offset="0.149" stop-color="#9B8E4A"/>
<stop offset="0.375" stop-color="#968F4E"/>
<stop offset="0.65" stop-color="#D53C3C"/>
<stop offset="0.96" stop-color="#5D3283"/>
<stop offset="1" stop-color="#D53C3C"/>
</linearGradient>
<linearGradient id="paint2_linear" x1="-1022.26" y1="1932.84" x2="-1054.47" y2="1929.81" gradientUnits="userSpaceOnUse">
<stop stop-color="#233B55"/>
<stop offset="1" stop-color="#131D32"/>
</linearGradient>
<linearGradient id="paint3_linear" x1="-1048.51" y1="1937.65" x2="-1076.95" y2="1904.45" gradientUnits="userSpaceOnUse">
<stop stop-color="#D53C3C"/>
<stop offset="0.247" stop-color="#355881"/>
<stop offset="0.75" stop-color="#D53C3C"/>
<stop offset="1" stop-color="#D53C3C"/>
</linearGradient>
<radialGradient id="paint4_radial" cx="0" cy="0" r="1" gradientUnits="userSpaceOnUse" gradientTransform="translate(317.793 94.6218) rotate(69.9659) scale(4.48955)">
<stop stop-color="#A792FE"/>
<stop offset="1" stop-color="#141023"/>
</radialGradient>
<clipPath id="clip0">
<rect x="81.3796" y="86.5381" width="385" height="811" rx="50" fill="white"/>
</clipPath>
</defs>
</svg>
